<svg xmlns="http://www.w3.org/2000/svg" viewBox="0 0 20.91 18.37"><defs><style>.cls-1{fill:#3f3f3f;}</style></defs><title>Asset 7b</title><g id="Layer_2" data-name="Layer 2"><g id="layout"><path class="cls-1" d="M10.43,2.43A5.68,5.68,0,0,1,14.81,0C17,0,19.08.44,20.24,2.56a5.84,5.84,0,0,1,.05,5.32,18,18,0,0,1-4,5.16c-1.64,1.65-3.33,3.26-5,4.89-.54.52-1.05.6-1.56.1C7,15.31,4,12.87,1.68,9.77A7.11,7.11,0,0,1,.19,3.62,4.37,4.37,0,0,1,3.54.32,6.07,6.07,0,0,1,10.43,2.43Zm-.09,13.24a2.08,2.08,0,0,0,.22-.12c1.7-1.67,3.41-3.32,5.07-5A9.27,9.27,0,0,0,18,7.15c.64-1.89.39-4.17-2.46-4.62l-.18,0c-1.9-.33-4,.95-4.22,2.67a.71.71,0,0,1-1.4,0c-.25-1.79-2.38-2.95-4.12-2.7-2.23.31-3.2,1.51-3,3.74A5.53,5.53,0,0,0,4.25,9.38C6.25,11.52,8.32,13.59,10.34,15.67Z"/></g></g></svg>