<svg xmlns="http://www.w3.org/2000/svg" viewBox="0 0 135.8 58.41"><defs><style>.cls-1{fill:#878787;}</style></defs><title>Asset 9b</title><g id="Layer_2" data-name="Layer 2"><g id="layout"><path class="cls-1" d="M35.91,30.22l-.76,14.27H0V42c.63-.06,1.36-.16,2.21-.3a7,7,0,0,0,1.66-.39,2.59,2.59,0,0,0,1.35-1.22,4.66,4.66,0,0,0,.37-2V6.74A5,5,0,0,0,5.3,4.88,2.85,2.85,0,0,0,3.87,3.54a7.91,7.91,0,0,0-2-.7C1.09,2.66.47,2.53,0,2.45V0H21V2.45c-.57.06-1.25.15-2,.26a10.61,10.61,0,0,0-2,.49,2.28,2.28,0,0,0-1.4,1.27,5.23,5.23,0,0,0-.35,2V35.68a17.36,17.36,0,0,0,.24,3.26,2.92,2.92,0,0,0,.95,1.75,3.63,3.63,0,0,0,2,.77,25.81,25.81,0,0,0,3.45.17,29.92,29.92,0,0,0,4.18-.29A4.67,4.67,0,0,0,28.83,40a21.7,21.7,0,0,0,2.81-4.49,49.19,49.19,0,0,0,2.3-5.32Z"/><path class="cls-1" d="M64.93,17.09a14.71,14.71,0,0,1,3,5.17,19.68,19.68,0,0,1,1,6.52,20.55,20.55,0,0,1-1,6.57,14.62,14.62,0,0,1-3,5.28,14.22,14.22,0,0,1-5.07,3.61,17.15,17.15,0,0,1-6.73,1.25,16.22,16.22,0,0,1-6-1.1,13.81,13.81,0,0,1-4.88-3.29A15,15,0,0,1,39,35.91,19.16,19.16,0,0,1,37.82,29a20,20,0,0,1,1-6.69A15.2,15.2,0,0,1,42,17.09a13.38,13.38,0,0,1,4.91-3.41,17,17,0,0,1,6.52-1.2A17.05,17.05,0,0,1,60,13.68,14.17,14.17,0,0,1,64.93,17.09ZM58,38.81a20.49,20.49,0,0,0,.88-4.26,55,55,0,0,0,.28-5.83c0-1.47-.09-3.14-.27-5a21.14,21.14,0,0,0-.81-4.45,7.45,7.45,0,0,0-1.79-3.1A3.9,3.9,0,0,0,53.44,15a4,4,0,0,0-3,1.22,8.14,8.14,0,0,0-1.76,3.17,19.35,19.35,0,0,0-.78,4.18c-.15,1.6-.22,3.27-.22,5,0,2.28.07,4.17.19,5.66a20.11,20.11,0,0,0,.92,4.5,7.28,7.28,0,0,0,1.77,3.07A4,4,0,0,0,53.44,43a4,4,0,0,0,2.77-1.05A7.09,7.09,0,0,0,58,38.81Z"/><path class="cls-1" d="M102.61,16.9H96.69a9.89,9.89,0,0,1,1.57,2.9A9.73,9.73,0,0,1,98.79,23a8.53,8.53,0,0,1-1,4.06,9,9,0,0,1-2.6,3.09A13,13,0,0,1,91.34,32a16,16,0,0,1-4.79.69H82.17a4.12,4.12,0,0,0-.72.9,2.2,2.2,0,0,0-.39,1.18,2,2,0,0,0,1,1.93,7.85,7.85,0,0,0,3.41.6c1.63,0,3.28.12,5,.23s2.86.19,3.58.21a9.53,9.53,0,0,1,3.09.73,9.13,9.13,0,0,1,2.66,1.68,8.55,8.55,0,0,1,2,2.81,9.08,9.08,0,0,1,.8,3.93,10.43,10.43,0,0,1-1,4.49,9.67,9.67,0,0,1-3,3.63,15.79,15.79,0,0,1-5.09,2.48,26.57,26.57,0,0,1-7.36.88q-7.07,0-10.76-2a6.47,6.47,0,0,1-3.68-6,5,5,0,0,1,2-4.08c1.32-1.06,3.38-1.65,6.18-1.75v-.38A9.54,9.54,0,0,1,76,41.58a5.62,5.62,0,0,1-1.38-3.76,4.22,4.22,0,0,1,.55-2.23A6.13,6.13,0,0,1,76.57,34a6.93,6.93,0,0,1,1.83-1c.72-.29,1.32-.51,1.8-.68V32a12.86,12.86,0,0,1-5.33-3.83,8.86,8.86,0,0,1-1.71-5.52,8.76,8.76,0,0,1,3.64-7.36A14.88,14.88,0,0,1,86,12.48a17.14,17.14,0,0,1,3.54.36c1.14.24,2,.45,2.59.64h10.44ZM94.49,49.22A4.82,4.82,0,0,0,94,47.1a3.82,3.82,0,0,0-2.29-1.7,22.06,22.06,0,0,0-3.18-.26q-2.2-.06-6.08-.06a8.43,8.43,0,0,0-1.57,2.23,7,7,0,0,0-.63,3.1,4.76,4.76,0,0,0,.38,1.73,5.25,5.25,0,0,0,1.18,1.75,7.2,7.2,0,0,0,2.09,1.43,9.07,9.07,0,0,0,3.49.51,7.93,7.93,0,0,0,5.29-1.56Q94.49,52.69,94.49,49.22ZM90,22.85a14,14,0,0,0-1-5.8,3.26,3.26,0,0,0-3.08-2.13,3.08,3.08,0,0,0-1.84.58,4.1,4.1,0,0,0-1.26,1.68,8.72,8.72,0,0,0-.63,2.49A28,28,0,0,0,82,22.6a13.25,13.25,0,0,0,1,5.62A3.18,3.18,0,0,0,86,30.41a3.26,3.26,0,0,0,3-2A12.2,12.2,0,0,0,90,22.85Z"/><path class="cls-1" d="M131.71,17.09a14.56,14.56,0,0,1,3,5.17,19.68,19.68,0,0,1,1.05,6.52,20.55,20.55,0,0,1-1,6.57,14.75,14.75,0,0,1-3,5.28,14.39,14.39,0,0,1-5.07,3.61,17.2,17.2,0,0,1-6.74,1.25,16.22,16.22,0,0,1-6-1.1A13.9,13.9,0,0,1,109,41.1a15.1,15.1,0,0,1-3.23-5.19A19.16,19.16,0,0,1,104.6,29a20,20,0,0,1,1-6.69,15.2,15.2,0,0,1,3.11-5.22,13.46,13.46,0,0,1,4.91-3.41,18.61,18.61,0,0,1,13.15,0A14.08,14.08,0,0,1,131.71,17.09Zm-6.89,21.72a20.49,20.49,0,0,0,.88-4.26,52.45,52.45,0,0,0,.28-5.83c0-1.47-.09-3.14-.27-5a21.91,21.91,0,0,0-.8-4.45,7.67,7.67,0,0,0-1.79-3.1,4.36,4.36,0,0,0-6,.09,8.14,8.14,0,0,0-1.76,3.17,19.35,19.35,0,0,0-.78,4.18c-.14,1.6-.21,3.27-.21,5,0,2.28.06,4.17.18,5.66a20.11,20.11,0,0,0,.92,4.5,7.28,7.28,0,0,0,1.77,3.07,4.29,4.29,0,0,0,5.71.08A7,7,0,0,0,124.82,38.81Z"/></g></g></svg>