<svg xmlns="http://www.w3.org/2000/svg" viewBox="0 0 18.15 18.15"><defs><style>.cls-1{fill:#3f3f3f;}</style></defs><title>Asset 8b</title><g id="Layer_2" data-name="Layer 2"><g id="layout"><path class="cls-1" d="M.4,15.77,4.14,12A7.47,7.47,0,0,1,2.79,7.68a7.47,7.47,0,0,1,.61-3A7.84,7.84,0,0,1,5,2.24,7.6,7.6,0,0,1,7.49.61a7.58,7.58,0,0,1,6,0,7.6,7.6,0,0,1,2.46,1.63,7.84,7.84,0,0,1,1.63,2.45,7.67,7.67,0,0,1-7.07,10.66A7.47,7.47,0,0,1,6.12,14L2.38,17.73a1.29,1.29,0,0,1-1,.42,1.35,1.35,0,0,1-1-.42,1.36,1.36,0,0,1-.41-1A1.32,1.32,0,0,1,.4,15.77Zm10.07-3.21a4.74,4.74,0,0,0,3.45-1.43,4.7,4.7,0,0,0,1.43-3.45,4.67,4.67,0,0,0-1.43-3.45,4.71,4.71,0,0,0-3.45-1.44A4.67,4.67,0,0,0,7,4.23,4.67,4.67,0,0,0,5.58,7.68,4.71,4.71,0,0,0,7,11.13,4.7,4.7,0,0,0,10.47,12.56Z"/></g></g></svg>