<svg xmlns="http://www.w3.org/2000/svg" viewBox="0 0 203.73 49.41"><defs><style>.cls-1{fill:#f7b91e;}</style></defs><title>Asset 3b</title><g id="Layer_2" data-name="Layer 2"><g id="layout"><path d="M.29,2.78H11.44q6.51,0,9.67,1.93a6.55,6.55,0,0,1,3.16,6,7.61,7.61,0,0,1-1.38,4.59,6.13,6.13,0,0,1-3.63,2.45V18a7.45,7.45,0,0,1,4.31,2.62,7.92,7.92,0,0,1,1.33,4.77,8.16,8.16,0,0,1-3.27,6.85q-3.25,2.51-8.9,2.5H.29ZM8.92,15h2.61a4.71,4.71,0,0,0,2.87-.77,2.65,2.65,0,0,0,1-2.27q0-2.68-4.07-2.69H8.92Zm0,6.32v6.71h3q4,0,4.05-3.41a2.91,2.91,0,0,0-1.09-2.45,5,5,0,0,0-3.13-.85Z"/><path d="M29.21,3.8A3.62,3.62,0,0,1,30.28.94,5.14,5.14,0,0,1,33.73,0a5.21,5.21,0,0,1,3.48,1A3.58,3.58,0,0,1,38.3,3.8q0,3.76-4.57,3.76T29.21,3.8ZM38,34.73H29.43V10H38Z"/><path d="M51.49,20.81A45.25,45.25,0,0,1,54.14,17l5.55-7h9.53L60.63,20.5l9.14,14.23H60l-5.42-8.87L51.8,28v6.75H43.21V.72H51.8V14.1a46.28,46.28,0,0,1-.48,6.71Z"/><path d="M82.34,35.17q-6.2,0-9.61-3.29t-3.42-9.37q0-6.27,3.17-9.62t9-3.36q5.59,0,8.64,2.92c2,1.94,3,4.74,3,8.4v3.81H77.94a4.24,4.24,0,0,0,1.52,3.25,6,6,0,0,0,3.9,1.18,19.12,19.12,0,0,0,4.15-.42,20.53,20.53,0,0,0,4.09-1.46v6.15a15.45,15.45,0,0,1-4.15,1.42A29,29,0,0,1,82.34,35.17Zm-.51-19.83a3.57,3.57,0,0,0-2.52.95,4.49,4.49,0,0,0-1.19,3h7.34a4.28,4.28,0,0,0-1-2.86A3.35,3.35,0,0,0,81.83,15.34Z"/><path d="M119,25a9.41,9.41,0,0,1-1.51,5.28,9.87,9.87,0,0,1-4.34,3.58,16.2,16.2,0,0,1-6.67,1.28,27,27,0,0,1-5.36-.45,20.12,20.12,0,0,1-4.5-1.56v-7.7a25.27,25.27,0,0,0,5.14,2,18.81,18.81,0,0,0,4.89.71,4.76,4.76,0,0,0,2.82-.66,2.06,2.06,0,0,0,.9-1.72,1.9,1.9,0,0,0-.36-1.15,4.11,4.11,0,0,0-1.16-1c-.53-.34-2-1-4.25-2.06a20,20,0,0,1-4.69-2.75,8.59,8.59,0,0,1-2.32-3.06,10.19,10.19,0,0,1-.75-4.09,8.18,8.18,0,0,1,3.21-6.88c2.14-1.65,5.09-2.47,8.83-2.47A24.77,24.77,0,0,1,119,4.61l-2.64,6.67a19.21,19.21,0,0,0-7.74-2.06,4.07,4.07,0,0,0-2.45.59,1.8,1.8,0,0,0-.76,1.47,2.09,2.09,0,0,0,1,1.68,36.61,36.61,0,0,0,5.28,2.71,14.66,14.66,0,0,1,5.74,4A8.67,8.67,0,0,1,119,25Z"/><path d="M138.56,34.73V21.22q0-5-3-5A3.32,3.32,0,0,0,132.51,18q-1,1.76-1,5.85V34.73H123V.72h8.55V5.55q0,3.29-.35,7.48h.39a7.05,7.05,0,0,1,2.91-2.71,9,9,0,0,1,3.91-.79,8.57,8.57,0,0,1,6.46,2.39,9.26,9.26,0,0,1,2.31,6.7V34.73Z"/><path d="M194.68,35.17a7.7,7.7,0,0,1-6.32-2.86H188a31.64,31.64,0,0,1,.39,3.23v10h-8.54V10h7l1.2,3.14h.39a7.51,7.51,0,0,1,6.58-3.58,7.42,7.42,0,0,1,6.45,3.41q2.34,3.41,2.34,9.35c0,4-.81,7.14-2.44,9.44A7.69,7.69,0,0,1,194.68,35.17Zm-2.86-18.93a2.78,2.78,0,0,0-2.64,1.34,9,9,0,0,0-.82,4v.68a9.3,9.3,0,0,0,.86,4.61,2.88,2.88,0,0,0,2.68,1.42,2.51,2.51,0,0,0,2.39-1.41,10.74,10.74,0,0,0,.74-4.66,10.39,10.39,0,0,0-.74-4.58A2.58,2.58,0,0,0,191.82,16.24Z"/><path class="cls-1" d="M177.76,23.62a1.86,1.86,0,0,0-.55.16c-.25.17-.6.37-.66.61s.19.56.35.82a3.68,3.68,0,0,0,.51.54,4.27,4.27,0,0,0-.72.21c-.23.11-.55.27-.6.47a1.37,1.37,0,0,0,.19.83,3.84,3.84,0,0,0,.44.64,3.57,3.57,0,0,0-.74.1c-.26.09-.6.2-.7.41a1.31,1.31,0,0,0,.08.81,4.16,4.16,0,0,0,.35.7,4.09,4.09,0,0,0-.78,0,1.1,1.1,0,0,0-.71.29,1.28,1.28,0,0,0-.08.81,4.07,4.07,0,0,0,.26.74,4.11,4.11,0,0,0-.77-.12,1.5,1.5,0,0,0-.79.2c-.28.19-.27.51-.16.84a4.33,4.33,0,0,1,.12.72c-.22-.08-.44-.14-.65-.24a.8.8,0,0,0-1.19.91,5.3,5.3,0,0,1,0,.69,5.39,5.39,0,0,1-.58-.32.8.8,0,0,0-1.34.7,4.62,4.62,0,0,1-.09.65,3.87,3.87,0,0,1-.53-.37.84.84,0,0,0-.86-.32.8.8,0,0,0-.57.76,1.18,1.18,0,0,1,0,.27,3.36,3.36,0,0,1-.19.38,1.74,1.74,0,0,1-.29-.25,5,5,0,0,0-.33-.44.75.75,0,0,0-1.23.25,2,2,0,0,1-.08.22c-.09.19-.19.38-.28.58a3.7,3.7,0,0,1-.38-.53.83.83,0,0,0-.77-.56.76.76,0,0,0-.75.58s0,.09,0,.13l-.34.38c-.08-.14-.17-.27-.24-.41a3,3,0,0,0-.22-.55.77.77,0,0,0-1.29.1,5.43,5.43,0,0,1-.46.51c-.07-.23-.17-.46-.22-.7-.1-.48-.44-.82-.86-.72a2.28,2.28,0,0,0-.63.43l-.42.3a2.08,2.08,0,0,1-.14-.53c0-.39,0-.78-.45-1a.86.86,0,0,0-1,.29s-.06.08-.11.09-.25.1-.33.06-.08-.21-.07-.32.11-.35.07-.5-.16-.6-.36-.72a1.39,1.39,0,0,0-.81,0,3.53,3.53,0,0,0-.65.21,4,4,0,0,1,.1-.69.83.83,0,0,0-.16-.9.77.77,0,0,0-.94-.09,1.19,1.19,0,0,1-.26.11c-.09,0-.25,0-.28,0a.39.39,0,0,1,0-.32c.05-.18.17-.33.23-.5a.72.72,0,0,0-.79-1,6.57,6.57,0,0,1-.77,0,6,6,0,0,1,.34-.67.75.75,0,0,0,.07-.86.73.73,0,0,0-.78-.37h-.09l-.55-.11a3.88,3.88,0,0,1,.3-.48c.26-.28.5-.54.35-1s-.49-.46-.85-.52a1.82,1.82,0,0,1-.47-.18c.11-.13.22-.27.34-.4s.18-.09.21-.17c.12-.25.32-.54.27-.76s-.34-.42-.56-.58a3.46,3.46,0,0,0-.6-.32,4,4,0,0,1,.52-.4.85.85,0,0,0,.53-.79.76.76,0,0,0-.57-.7,1.56,1.56,0,0,1-.26-.11c-.07-.06-.18-.15-.18-.23s.11-.17.19-.21.32-.11.48-.17A.74.74,0,0,0,150,19.6c-.08-.07-.19-.11-.27-.18a1.42,1.42,0,0,1-.2-.28,2.49,2.49,0,0,1,.32-.2c.12,0,.27-.05.4-.08.33-.07.61-.25.62-.59a2.4,2.4,0,0,0-.25-.74l0,0-.36-.49c.2,0,.39-.11.59-.13.38,0,.7-.1.87-.48a.85.85,0,0,0-.22-.93,2.78,2.78,0,0,1-.22-.42l.5-.09a2.28,2.28,0,0,0,.84-.12c.4-.22.39-.63.08-1.22a2,2,0,0,1-.11-.37,2,2,0,0,1,.42,0c.17,0,.32.1.49.12a.75.75,0,0,0,.81-1,2.55,2.55,0,0,1-.13-.39.44.44,0,0,1,0-.32s.19,0,.28,0c1.26.49,1.52.29,1.43-1.06,0-.08,0-.22.06-.24a.37.37,0,0,1,.29,0c.14.08.26.21.41.29a.77.77,0,0,0,1.2-.64c0-.23.07-.46.11-.69.2.14.42.26.61.42a.75.75,0,0,0,1.26-.39c0-.12,0-.25.07-.37a2.72,2.72,0,0,1,.16-.35,2.54,2.54,0,0,1,.34.23c.1.1.16.23.25.33A.74.74,0,0,0,161.92,9c.07-.14.09-.3.16-.43a1.66,1.66,0,0,1,.24-.3,1.81,1.81,0,0,1,.24.24c.07.1.09.26.17.33s.45.39.67.38a1.34,1.34,0,0,0,.7-.41,3,3,0,0,0,.41-.57,3.88,3.88,0,0,0,.34.6c.18.21.38.47.62.52s.5-.13.71-.27a3.71,3.71,0,0,0,.54-.51,5.73,5.73,0,0,1,.23.7.76.76,0,0,0,1.26.42c.2-.17.43-.31.64-.47,0,.26.08.52.11.79a.76.76,0,0,0,1.21.55c.21-.12.45-.22.67-.33,0,.24,0,.49,0,.73a.74.74,0,0,0,1,.84l.21-.08.67-.18a3.63,3.63,0,0,0-.09.65c0,.27,0,.62.14.79s.51.18.78.2a3,3,0,0,0,.73-.09,5.68,5.68,0,0,1-.22.7c-.27.64.09,1.12.81,1.08a6.79,6.79,0,0,1,.78,0l-.39.64a.73.73,0,0,0,.54,1.17c.18,0,.37,0,.55,0a1.48,1.48,0,0,1,.32.14,1.4,1.4,0,0,1-.15.3c-.09.12-.23.2-.33.32a.71.71,0,0,0,.36,1.22c.2.06.4.06.59.11s.22.11.23.18-.08.19-.15.25-.27.12-.34.23-.36.51-.33.74.31.45.52.63a3.78,3.78,0,0,0,.69.37c-.22.14-.43.3-.65.43a.76.76,0,0,0,0,1.35l.72.42Zm-8.82-1.24a5.47,5.47,0,0,0-5.45-5.47,5.54,5.54,0,0,0-5.57,5.53,5.51,5.51,0,1,0,11-.06ZM157,16.7a4.5,4.5,0,0,0,.91-.48,9.23,9.23,0,0,1,2.55-1.63,1.59,1.59,0,0,0,1.05-1.24c.07-.37.2-.74.3-1.11.18-.74-.27-1.19-1-1a11.38,11.38,0,0,0-5.45,3.29,5.23,5.23,0,0,0-.56.67.79.79,0,0,0,.43,1.22C155.78,16.54,156.32,16.59,157,16.7ZM174.86,22c-.16-1-.33-2-.5-3a.82.82,0,0,0-.64-.7.77.77,0,0,0-.85.32c-.23.27-.48.52-.73.77a1.71,1.71,0,0,0-.47,1.39,7.9,7.9,0,0,1,0,2.43,2.72,2.72,0,0,0,.9,2.85c.06.05.1.12.15.17a.76.76,0,0,0,1.39-.23A13.92,13.92,0,0,0,174.86,22Zm-22.7.72-.11,0c.19,1.06.34,2.12.58,3.17a.76.76,0,0,0,1.39.33c.21-.23.41-.47.63-.68a1.81,1.81,0,0,0,.51-1.52A6.81,6.81,0,0,1,155.1,22a2.7,2.7,0,0,0-.91-2.93l-.12-.14c-.5-.56-1.09-.44-1.33.28A10.58,10.58,0,0,0,152.16,22.69Zm17.39-6.27c.61-.13,1.12-.22,1.63-.34.71-.16.94-.74.42-1.25a22.09,22.09,0,0,0-2.25-2,10,10,0,0,0-3.41-1.48.86.86,0,0,0-.93.22.77.77,0,0,0-.1.9c.12.3.21.61.3.92a1.74,1.74,0,0,0,1,1.08c.86.46,1.68,1,2.53,1.48C169,16.16,169.31,16.29,169.55,16.42Zm-7.48,16.25c-.13-.36-.3-.81-.44-1.26a1.68,1.68,0,0,0-1-1c-.91-.46-1.76-1-2.65-1.49a1.93,1.93,0,0,0-.93-.3,7.55,7.55,0,0,0-1.67.36.66.66,0,0,0-.32,1.08,10.75,10.75,0,0,0,6.06,3.47A.81.81,0,0,0,162.07,32.67Zm7.77-4.24a8.67,8.67,0,0,0-.91.46A10.31,10.31,0,0,1,167.15,30a2.68,2.68,0,0,0-1.93,2.32,1.09,1.09,0,0,1-.05.17c-.19.7.22,1.13.92,1a10.58,10.58,0,0,0,4.49-2.24A14.51,14.51,0,0,0,171.83,30a.75.75,0,0,0-.27-1.25C171,28.62,170.51,28.56,169.84,28.43Zm-.17-8.84a.73.73,0,0,0,.74-.76.75.75,0,0,0-1.5,0A.75.75,0,0,0,169.67,19.59ZM168.91,26a.75.75,0,0,0,.78.74.73.73,0,0,0,.72-.74.74.74,0,0,0-.73-.75A.75.75,0,0,0,168.91,26ZM157.27,18.1a.75.75,0,0,0-.76.76.74.74,0,0,0,.74.73.75.75,0,0,0,0-1.49Zm6.93,11.53a.76.76,0,0,0-.75-.77.73.73,0,0,0-.75.76.71.71,0,0,0,.71.74A.74.74,0,0,0,164.2,29.63Zm-.74-13.55a.75.75,0,1,0-.73-.74A.75.75,0,0,0,163.46,16.08Zm-6.27,9.16a.79.79,0,0,0-.75.74.75.75,0,0,0,.77.75.72.72,0,0,0,.73-.73A.74.74,0,0,0,157.19,25.24Z"/><path d="M2.57,40.46a2.31,2.31,0,0,1,1.92.81,3.65,3.65,0,0,1,.64,2.34A3.55,3.55,0,0,1,4.45,46a2.33,2.33,0,0,1-1.91.82,2.45,2.45,0,0,1-1.16-.27,2,2,0,0,1-.83-.76H.5l-.15.92H0V38H.55v2.18c0,.33,0,.63,0,.91l0,.48h0a2.23,2.23,0,0,1,.84-.81A2.54,2.54,0,0,1,2.57,40.46Zm0,.51A1.79,1.79,0,0,0,1,41.58a3.43,3.43,0,0,0-.47,2v.1a3.11,3.11,0,0,0,.49,2,1.81,1.81,0,0,0,1.5.6,1.71,1.71,0,0,0,1.5-.7,3.29,3.29,0,0,0,.5-2C4.54,41.84,3.88,41,2.55,41Z"/><path d="M9.3,46.77A2.62,2.62,0,0,1,7.24,46a3.23,3.23,0,0,1-.74-2.28,3.54,3.54,0,0,1,.71-2.33,2.38,2.38,0,0,1,1.93-.88,2.06,2.06,0,0,1,1.69.75,3.07,3.07,0,0,1,.62,2v.44H7.08a2.86,2.86,0,0,0,.58,1.92,2.05,2.05,0,0,0,1.64.66,5,5,0,0,0,.92-.08,4.88,4.88,0,0,0,1-.31v.5a4.75,4.75,0,0,1-1,.31A5.64,5.64,0,0,1,9.3,46.77ZM9.14,41a1.82,1.82,0,0,0-1.41.57,2.79,2.79,0,0,0-.62,1.67h3.76a2.69,2.69,0,0,0-.46-1.65A1.51,1.51,0,0,0,9.14,41Z"/><path d="M16.91,45.08a1.45,1.45,0,0,1-.62,1.25,3,3,0,0,1-1.76.44,4.23,4.23,0,0,1-1.94-.38V45.8a4.39,4.39,0,0,0,1.94.46A2.58,2.58,0,0,0,15.9,46a.91.91,0,0,0,.46-.8,1,1,0,0,0-.37-.77,4,4,0,0,0-1.22-.62,7.45,7.45,0,0,1-1.28-.56,1.82,1.82,0,0,1-.56-.54,1.39,1.39,0,0,1-.18-.73,1.25,1.25,0,0,1,.57-1.08,2.8,2.8,0,0,1,1.6-.4,4.91,4.91,0,0,1,1.87.37l-.21.51A4.32,4.32,0,0,0,14.92,41a2.44,2.44,0,0,0-1.18.24.76.76,0,0,0-.44.68.94.94,0,0,0,.34.76,4.44,4.44,0,0,0,1.32.64,6.5,6.5,0,0,1,1.2.54,1.53,1.53,0,0,1,.56.54A1.26,1.26,0,0,1,16.91,45.08Z"/><path d="M20.37,46.28a4.15,4.15,0,0,0,.92-.09v.45a3.26,3.26,0,0,1-.93.13,1.51,1.51,0,0,1-1.19-.43A2,2,0,0,1,18.79,45V41.06h-.9v-.32l.9-.25.28-1.38h.28v1.47h1.79v.48H19.35v3.85a1.7,1.7,0,0,0,.25,1A.87.87,0,0,0,20.37,46.28Z"/><path d="M28.14,40.46a2.31,2.31,0,0,1,1.92.81,3.65,3.65,0,0,1,.65,2.34A3.61,3.61,0,0,1,30,46a2.33,2.33,0,0,1-1.91.82A2.52,2.52,0,0,1,27,46.5a2,2,0,0,1-.82-.76h-.05l-.16.92h-.34V38h.55v2.18c0,.33,0,.63,0,.91l0,.48h0a2.21,2.21,0,0,1,.83-.81A2.54,2.54,0,0,1,28.14,40.46Zm0,.51a1.8,1.8,0,0,0-1.54.61,3.44,3.44,0,0,0-.46,2v.1a3.18,3.18,0,0,0,.48,2,1.83,1.83,0,0,0,1.51.6,1.73,1.73,0,0,0,1.5-.7,3.36,3.36,0,0,0,.5-2C30.12,41.84,29.46,41,28.13,41Z"/><path d="M32.29,38.89c0-.36.12-.53.36-.53a.31.31,0,0,1,.27.14.7.7,0,0,1,.09.39.76.76,0,0,1-.09.4.31.31,0,0,1-.27.14Q32.29,39.43,32.29,38.89Zm.63,7.77h-.55V40.58h.55Z"/><path d="M35.44,44l3.1-3.41h.67l-2.39,2.6,2.6,3.48h-.67l-2.3-3.07-1,.9v2.17H34.9V38h.55v4.36l0,1.67Z"/><path d="M42.72,46.77A2.62,2.62,0,0,1,40.66,46a3.23,3.23,0,0,1-.74-2.28,3.6,3.6,0,0,1,.71-2.33,2.38,2.38,0,0,1,1.93-.88,2.06,2.06,0,0,1,1.69.75,3.07,3.07,0,0,1,.63,2v.44H40.5a2.86,2.86,0,0,0,.58,1.92,2.05,2.05,0,0,0,1.64.66,5,5,0,0,0,.92-.08,4.88,4.88,0,0,0,1-.31v.5a4.55,4.55,0,0,1-1,.31A5.64,5.64,0,0,1,42.72,46.77ZM42.56,41a1.85,1.85,0,0,0-1.41.57,2.79,2.79,0,0,0-.62,1.67h3.76a2.63,2.63,0,0,0-.46-1.65A1.51,1.51,0,0,0,42.56,41Z"/><path d="M57.12,46.66v-4a2,2,0,0,0-.35-1.3,1.31,1.31,0,0,0-1.06-.4,1.75,1.75,0,0,0-1.38.51,2.41,2.41,0,0,0-.45,1.62v3.56h-.56V42.5q0-1.53-1.41-1.53a1.65,1.65,0,0,0-1.39.55,2.91,2.91,0,0,0-.44,1.78v3.36h-.55V40.58H50l.11.83h0a1.71,1.71,0,0,1,.71-.7,2.21,2.21,0,0,1,1-.25,1.75,1.75,0,0,1,1.84,1.08h0a2.19,2.19,0,0,1,.8-.8,2.35,2.35,0,0,1,1.14-.28,2,2,0,0,1,1.49.53,2.44,2.44,0,0,1,.5,1.69v4Z"/><path d="M63.27,46.66l-.14-1h0a3.07,3.07,0,0,1-.94.83,2.57,2.57,0,0,1-1.15.24,2,2,0,0,1-1.39-.46A1.64,1.64,0,0,1,59.12,45a1.56,1.56,0,0,1,.74-1.38A4,4,0,0,1,62,43.14l1.16,0v-.4a2,2,0,0,0-.36-1.31A1.33,1.33,0,0,0,61.67,41a3.71,3.71,0,0,0-1.75.47l-.21-.49a4.7,4.7,0,0,1,2-.47,2,2,0,0,1,1.5.52,2.3,2.3,0,0,1,.49,1.63v4ZM61,46.27a1.94,1.94,0,0,0,2.09-2.11v-.59l-1.06,0a4,4,0,0,0-1.82.4,1.29,1.29,0,0,0-.2,1.94A1.42,1.42,0,0,0,61,46.27Z"/><path d="M68,40.46a5,5,0,0,1,.83.08l-.1.53a3.48,3.48,0,0,0-.79-.09,1.55,1.55,0,0,0-1.28.66,2.68,2.68,0,0,0-.49,1.66v3.36h-.56V40.58h.47l.06,1.1h0a2.61,2.61,0,0,1,.8-1A1.85,1.85,0,0,1,68,40.46Z"/><path d="M70.69,44l3.11-3.41h.67l-2.4,2.6,2.6,3.48H74L71.7,43.59l-1,.9v2.17h-.56V38h.56v4.36l0,1.67Z"/><path d="M78,46.77A2.64,2.64,0,0,1,75.91,46a3.27,3.27,0,0,1-.74-2.28,3.55,3.55,0,0,1,.72-2.33,2.37,2.37,0,0,1,1.93-.88,2.08,2.08,0,0,1,1.69.75,3.12,3.12,0,0,1,.62,2v.44H75.75a2.91,2.91,0,0,0,.59,1.92,2.05,2.05,0,0,0,1.64.66,4.61,4.61,0,0,0,1.91-.39v.5a4.75,4.75,0,0,1-1,.31A5.64,5.64,0,0,1,78,46.77ZM77.82,41a1.82,1.82,0,0,0-1.41.57,2.73,2.73,0,0,0-.62,1.67h3.75a2.63,2.63,0,0,0-.46-1.65A1.48,1.48,0,0,0,77.82,41Z"/><path d="M83.42,46.28a4.15,4.15,0,0,0,.92-.09v.45a3.26,3.26,0,0,1-.93.13,1.52,1.52,0,0,1-1.19-.43A2,2,0,0,1,81.84,45V41.06h-.9v-.32l.9-.25.28-1.38h.29v1.47h1.78v.48H82.41v3.85a1.78,1.78,0,0,0,.24,1A.88.88,0,0,0,83.42,46.28Z"/><path d="M91.23,46.77a2.22,2.22,0,0,1-2-1.05h0l0,.47c0,.27,0,.58,0,.9v2.32h-.55V40.58h.47l.1.87h0a2.19,2.19,0,0,1,2-1,2.24,2.24,0,0,1,1.87.81,3.7,3.7,0,0,1,.65,2.35,3.56,3.56,0,0,1-.68,2.32A2.27,2.27,0,0,1,91.23,46.77Zm0-.49a1.67,1.67,0,0,0,1.44-.7,3.2,3.2,0,0,0,.51-1.94c0-1.78-.64-2.67-1.93-2.67a1.93,1.93,0,0,0-1.56.58,2.92,2.92,0,0,0-.5,1.9v.18a3.36,3.36,0,0,0,.48,2A1.89,1.89,0,0,0,91.22,46.28Z"/><path d="M96,46.66h-.56V38H96Z"/><path d="M101.64,46.66l-.14-1h0a3,3,0,0,1-.95.83,2.52,2.52,0,0,1-1.14.24A2,2,0,0,1,98,46.31a1.64,1.64,0,0,1-.5-1.27,1.58,1.58,0,0,1,.74-1.38,4,4,0,0,1,2.15-.52l1.15,0v-.4a2,2,0,0,0-.35-1.31A1.33,1.33,0,0,0,100,41a3.68,3.68,0,0,0-1.75.47l-.21-.49a4.7,4.7,0,0,1,2-.47,2,2,0,0,1,1.49.52,2.3,2.3,0,0,1,.5,1.63v4Zm-2.23-.39a1.94,1.94,0,0,0,2.09-2.11v-.59l-1.06,0a4.13,4.13,0,0,0-1.83.4A1.3,1.3,0,0,0,98.42,46,1.42,1.42,0,0,0,99.41,46.27Z"/><path d="M106.44,46.77a2.59,2.59,0,0,1-2-.82,3.27,3.27,0,0,1-.74-2.29,3.4,3.4,0,0,1,.76-2.36,2.7,2.7,0,0,1,2.1-.84,4,4,0,0,1,1.51.28l-.15.49a4.29,4.29,0,0,0-1.37-.26,2.06,2.06,0,0,0-1.69.69,3,3,0,0,0-.58,2,2.91,2.91,0,0,0,.58,1.93,2,2,0,0,0,1.61.7A3.87,3.87,0,0,0,108,46v.51A3.43,3.43,0,0,1,106.44,46.77Z"/><path d="M111.76,46.77a2.62,2.62,0,0,1-2.07-.82,3.27,3.27,0,0,1-.74-2.28,3.55,3.55,0,0,1,.72-2.33,2.36,2.36,0,0,1,1.92-.88,2.1,2.1,0,0,1,1.7.75,3.12,3.12,0,0,1,.62,2v.44h-4.38a2.86,2.86,0,0,0,.59,1.92,2,2,0,0,0,1.64.66,4.61,4.61,0,0,0,1.91-.39v.5a4.75,4.75,0,0,1-1,.31A5.64,5.64,0,0,1,111.76,46.77ZM111.59,41a1.85,1.85,0,0,0-1.41.57,2.79,2.79,0,0,0-.62,1.67h3.76a2.63,2.63,0,0,0-.46-1.65A1.5,1.5,0,0,0,111.59,41Z"/><path d="M115.29,46.22c0-.36.15-.55.45-.55s.46.19.46.55-.15.55-.46.55S115.29,46.59,115.29,46.22Z"/></g></g></svg>